<svg width="83" height="14" viewBox="0 0 83 14" fill="none" xmlns="http://www.w3.org/2000/svg">
<path d="M4.644 2.444C4.316 2.444 4.082 2.53 3.942 2.702C3.802 2.87 3.732 3.162 3.732 3.578V5.816C3.732 6.2 3.646 6.5 3.474 6.716C3.302 6.928 3.092 7.078 2.844 7.166C2.596 7.254 2.356 7.304 2.124 7.316V7.208C2.356 7.216 2.596 7.266 2.844 7.358C3.092 7.446 3.302 7.598 3.474 7.814C3.646 8.026 3.732 8.326 3.732 8.714C3.732 8.898 3.732 9.116 3.732 9.368C3.732 9.616 3.732 9.868 3.732 10.124C3.732 10.316 3.732 10.504 3.732 10.688C3.732 10.868 3.732 11.028 3.732 11.168C3.732 11.584 3.802 11.868 3.942 12.02C4.082 12.176 4.316 12.254 4.644 12.254V13.802C4.068 13.802 3.56 13.742 3.12 13.622C2.684 13.506 2.342 13.304 2.094 13.016C1.846 12.728 1.722 12.33 1.722 11.822C1.722 11.658 1.722 11.468 1.722 11.252C1.722 11.036 1.722 10.816 1.722 10.592C1.722 10.352 1.722 10.12 1.722 9.896C1.722 9.668 1.722 9.466 1.722 9.29C1.722 9.002 1.69 8.766 1.626 8.582C1.562 8.394 1.45 8.248 1.29 8.144C1.134 8.04 0.922 7.966 0.654 7.922V6.608C0.922 6.564 1.134 6.49 1.29 6.386C1.45 6.282 1.562 6.138 1.626 5.954C1.69 5.766 1.722 5.528 1.722 5.24V2.9C1.722 2.388 1.846 1.986 2.094 1.694C2.342 1.402 2.684 1.196 3.12 1.076C3.56 0.952 4.068 0.89 4.644 0.89V2.444ZM6.86484 11L5.60484 2.15H7.80684L8.65884 10.61L8.35884 10.592L9.72684 2.15H12.3668L13.7288 10.592L13.4288 10.61L14.2808 2.15H16.4828L15.2228 11H11.9468L10.9388 3.578H11.1548L10.1468 11H6.86484ZM18.0412 8.426V7.088H22.0312L21.8512 7.4C21.8512 7.368 21.8512 7.336 21.8512 7.304C21.8512 7.268 21.8512 7.236 21.8512 7.208C21.8512 7.028 21.8052 6.85 21.7132 6.674C21.6212 6.494 21.4752 6.346 21.2752 6.23C21.0752 6.11 20.8132 6.05 20.4892 6.05C20.1692 6.05 19.8972 6.118 19.6732 6.254C19.4532 6.386 19.2852 6.582 19.1692 6.842C19.0572 7.098 19.0012 7.408 19.0012 7.772C19.0012 8.152 19.0552 8.478 19.1632 8.75C19.2752 9.018 19.4452 9.224 19.6732 9.368C19.9012 9.508 20.1932 9.578 20.5492 9.578C20.7692 9.578 20.9572 9.56 21.1132 9.524C21.2732 9.488 21.4012 9.442 21.4972 9.386C21.5972 9.326 21.6712 9.262 21.7192 9.194C21.7712 9.122 21.8032 9.052 21.8152 8.984H23.9272C23.9032 9.26 23.8072 9.528 23.6392 9.788C23.4712 10.044 23.2392 10.276 22.9432 10.484C22.6512 10.688 22.2952 10.85 21.8752 10.97C21.4592 11.09 20.9872 11.15 20.4592 11.15C19.7352 11.15 19.1052 11.01 18.5692 10.73C18.0332 10.446 17.6172 10.054 17.3212 9.554C17.0292 9.054 16.8832 8.478 16.8832 7.826C16.8832 7.162 17.0332 6.582 17.3332 6.086C17.6332 5.586 18.0512 5.198 18.5872 4.922C19.1272 4.642 19.7512 4.502 20.4592 4.502C21.1912 4.502 21.8232 4.644 22.3552 4.928C22.8872 5.208 23.2972 5.604 23.5852 6.116C23.8732 6.628 24.0172 7.23 24.0172 7.922C24.0172 8.03 24.0152 8.128 24.0112 8.216C24.0072 8.304 24.0012 8.374 23.9932 8.426H18.0412ZM29.0973 11.144C28.5933 11.144 28.1313 11.006 27.7113 10.73C27.2953 10.454 26.9633 10.082 26.7153 9.614C26.4673 9.142 26.3433 8.616 26.3433 8.036C26.3433 8.02 26.3433 8.004 26.3433 7.988C26.3433 7.968 26.3433 7.948 26.3433 7.928L27.1713 7.91C27.1713 7.922 27.1713 7.936 27.1713 7.952C27.1713 7.964 27.1713 7.974 27.1713 7.982C27.1713 8.262 27.2353 8.504 27.3633 8.708C27.4953 8.908 27.6633 9.062 27.8673 9.17C28.0753 9.274 28.2893 9.326 28.5093 9.326C28.8653 9.326 29.1813 9.202 29.4573 8.954C29.7333 8.706 29.8713 8.314 29.8713 7.778C29.8713 7.242 29.7333 6.856 29.4573 6.62C29.1853 6.38 28.8693 6.26 28.5093 6.26C28.2933 6.26 28.0813 6.312 27.8733 6.416C27.6693 6.516 27.5013 6.664 27.3693 6.86C27.2373 7.052 27.1713 7.29 27.1713 7.574L26.3433 7.52C26.3433 6.936 26.4673 6.418 26.7153 5.966C26.9633 5.514 27.2953 5.158 27.7113 4.898C28.1313 4.638 28.5933 4.508 29.0973 4.508C29.6133 4.508 30.0973 4.634 30.5493 4.886C31.0053 5.138 31.3733 5.508 31.6533 5.996C31.9373 6.48 32.0793 7.074 32.0793 7.778C32.0793 8.518 31.9413 9.138 31.6653 9.638C31.3893 10.134 31.0253 10.51 30.5733 10.766C30.1213 11.018 29.6293 11.144 29.0973 11.144ZM25.0293 11V1.622H27.1713V11H25.0293ZM32.7255 11L34.8555 2.144H38.2515L40.3755 11H38.1795L36.5535 3.434H36.5655L34.9155 11H32.7255ZM34.4175 9.044V7.406H38.7015V9.044H34.4175ZM43.4729 11H41.3249V2.15H44.5349C45.2109 2.15 45.7929 2.282 46.2809 2.546C46.7729 2.81 47.1509 3.17 47.4149 3.626C47.6829 4.078 47.8169 4.588 47.8169 5.156C47.8169 5.724 47.6829 6.242 47.4149 6.71C47.1469 7.178 46.7669 7.552 46.2749 7.832C45.7869 8.112 45.2069 8.252 44.5349 8.252H43.4729V11ZM43.4729 7.616L42.5069 6.638H44.3129C44.5689 6.638 44.7969 6.582 44.9969 6.47C45.2009 6.354 45.3609 6.186 45.4769 5.966C45.5969 5.746 45.6569 5.476 45.6569 5.156C45.6569 4.832 45.5989 4.568 45.4829 4.364C45.3669 4.16 45.2069 4.01 45.0029 3.914C44.8029 3.818 44.5729 3.77 44.3129 3.77H42.5069L43.4729 2.78V7.616ZM48.9067 11V2.15H51.0187V11H48.9067ZM78.3362 2.444V0.89C78.9122 0.89 79.4182 0.952 79.8542 1.076C80.2942 1.196 80.6362 1.402 80.8802 1.694C81.1282 1.986 81.2522 2.388 81.2522 2.9C81.2522 3.096 81.2522 3.292 81.2522 3.488C81.2522 3.684 81.2522 3.88 81.2522 4.076C81.2522 4.268 81.2522 4.462 81.2522 4.658C81.2522 4.85 81.2522 5.044 81.2522 5.24C81.2522 5.528 81.2862 5.766 81.3542 5.954C81.4222 6.138 81.5322 6.282 81.6842 6.386C81.8402 6.49 82.0542 6.564 82.3262 6.608V7.922C82.0542 7.966 81.8402 8.04 81.6842 8.144C81.5322 8.248 81.4222 8.394 81.3542 8.582C81.2862 8.766 81.2522 9.002 81.2522 9.29V11.822C81.2522 12.33 81.1282 12.728 80.8802 13.016C80.6362 13.304 80.2942 13.506 79.8542 13.622C79.4182 13.742 78.9122 13.802 78.3362 13.802V12.254C78.6642 12.254 78.8982 12.176 79.0382 12.02C79.1782 11.868 79.2482 11.584 79.2482 11.168V8.714C79.2482 8.326 79.3342 8.026 79.5062 7.814C79.6782 7.598 79.8882 7.446 80.1362 7.358C80.3842 7.266 80.6242 7.216 80.8562 7.208V7.316C80.6242 7.304 80.3842 7.254 80.1362 7.166C79.8882 7.078 79.6782 6.928 79.5062 6.716C79.3342 6.5 79.2482 6.2 79.2482 5.816C79.2482 5.608 79.2482 5.4 79.2482 5.192C79.2482 4.984 79.2482 4.774 79.2482 4.562C79.2482 4.402 79.2482 4.24 79.2482 4.076C79.2482 3.908 79.2482 3.742 79.2482 3.578C79.2482 3.162 79.1782 2.87 79.0382 2.702C78.8982 2.53 78.6642 2.444 78.3362 2.444Z" fill="white"/>
<path d="M59.0714 2.15C59.7114 2.15 60.2334 2.24 60.6374 2.42C61.0414 2.6 61.3374 2.852 61.5254 3.176C61.7174 3.5 61.8134 3.874 61.8134 4.298C61.8134 4.726 61.7294 5.094 61.5614 5.402C61.3934 5.706 61.1814 5.944 60.9254 6.116C60.6734 6.284 60.4154 6.378 60.1514 6.398C60.4194 6.406 60.6994 6.478 60.9914 6.614C61.2834 6.75 61.5314 6.968 61.7354 7.268C61.9394 7.568 62.0414 7.97 62.0414 8.474C62.0414 8.942 61.9474 9.368 61.7594 9.752C61.5714 10.132 61.2594 10.436 60.8234 10.664C60.3914 10.888 59.8054 11 59.0654 11H55.3874V2.15H59.0714ZM57.4274 6.23L56.7254 5.654H58.4714C58.8874 5.654 59.1914 5.562 59.3834 5.378C59.5794 5.194 59.6774 4.956 59.6774 4.664C59.6774 4.468 59.6354 4.304 59.5514 4.172C59.4714 4.04 59.3454 3.94 59.1734 3.872C59.0014 3.804 58.7834 3.77 58.5194 3.77H56.4614L57.4274 2.78V6.23ZM58.6454 9.374C59.0534 9.374 59.3574 9.278 59.5574 9.086C59.7574 8.894 59.8574 8.646 59.8574 8.342C59.8574 8.182 59.8294 8.036 59.7734 7.904C59.7214 7.772 59.6414 7.658 59.5334 7.562C59.4294 7.466 59.2994 7.392 59.1434 7.34C58.9874 7.288 58.8094 7.262 58.6094 7.262H56.7254L57.4274 6.686V10.364L56.4614 9.374H58.6454Z" fill="#0093DD"/>
<path d="M65.3635 11H63.2155V2.15H66.4255C67.1015 2.15 67.6835 2.282 68.1715 2.546C68.6635 2.81 69.0415 3.17 69.3055 3.626C69.5735 4.078 69.7075 4.588 69.7075 5.156C69.7075 5.724 69.5735 6.242 69.3055 6.71C69.0375 7.178 68.6575 7.552 68.1655 7.832C67.6775 8.112 67.0975 8.252 66.4255 8.252H65.3635V11ZM65.3635 7.616L64.3975 6.638H66.2035C66.4595 6.638 66.6875 6.582 66.8875 6.47C67.0915 6.354 67.2515 6.186 67.3675 5.966C67.4875 5.746 67.5475 5.476 67.5475 5.156C67.5475 4.832 67.4895 4.568 67.3735 4.364C67.2575 4.16 67.0975 4.01 66.8935 3.914C66.6935 3.818 66.4635 3.77 66.2035 3.77H64.3975L65.3635 2.78V7.616Z" fill="#DC7418"/>
<path d="M73.9113 11.15C73.2673 11.15 72.6933 11.046 72.1893 10.838C71.6853 10.63 71.2893 10.322 71.0013 9.914C70.7133 9.502 70.5693 8.99 70.5693 8.378C70.5693 8.322 70.5693 8.268 70.5693 8.216C70.5693 8.164 70.5693 8.108 70.5693 8.048H72.7113C72.7113 8.1 72.7113 8.15 72.7113 8.198C72.7113 8.242 72.7113 8.288 72.7113 8.336C72.7113 8.684 72.8113 8.96 73.0113 9.164C73.2153 9.368 73.5213 9.47 73.9293 9.47C74.3333 9.47 74.6453 9.408 74.8653 9.284C75.0893 9.16 75.2013 8.956 75.2013 8.672C75.2013 8.468 75.1073 8.284 74.9193 8.12C74.7353 7.956 74.4853 7.806 74.1693 7.67C73.8533 7.53 73.4973 7.4 73.1013 7.28C72.6693 7.144 72.2653 6.964 71.8893 6.74C71.5133 6.512 71.2093 6.222 70.9773 5.87C70.7453 5.514 70.6293 5.074 70.6293 4.55C70.6293 4.014 70.7733 3.558 71.0613 3.182C71.3533 2.802 71.7453 2.512 72.2373 2.312C72.7333 2.108 73.2893 2.006 73.9053 2.006C74.5413 2.006 75.1073 2.106 75.6033 2.306C76.1033 2.506 76.4973 2.802 76.7853 3.194C77.0733 3.586 77.2173 4.07 77.2173 4.646C77.2173 4.706 77.2173 4.762 77.2173 4.814C77.2173 4.866 77.2173 4.92 77.2173 4.976H75.0813C75.0813 4.948 75.0813 4.912 75.0813 4.868C75.0813 4.82 75.0813 4.78 75.0813 4.748C75.0813 4.424 74.9913 4.166 74.8113 3.974C74.6313 3.778 74.3373 3.68 73.9293 3.68C73.5333 3.68 73.2273 3.752 73.0113 3.896C72.7953 4.04 72.6873 4.256 72.6873 4.544C72.6873 4.752 72.7713 4.93 72.9393 5.078C73.1073 5.226 73.3373 5.362 73.6293 5.486C73.9213 5.606 74.2533 5.732 74.6253 5.864C75.1573 6.048 75.6233 6.252 76.0233 6.476C76.4233 6.7 76.7333 6.98 76.9533 7.316C77.1733 7.652 77.2833 8.082 77.2833 8.606C77.2833 9.15 77.1393 9.612 76.8513 9.992C76.5673 10.368 76.1713 10.656 75.6633 10.856C75.1553 11.052 74.5713 11.15 73.9113 11.15Z" fill="#68B92E"/>
</svg>
